name C:\Users\r0593348\3dpredictsim\Results\Batchsim_tmt_linear_v2\Pog_s1_tmt_bCst_d02_k250_ig24_pas.mot
datacolumns 128
datarows 4
range 1.10421733 1.13734385
endheader
time	pelvis_tilt	pelvis_list	pelvis_rotation	pelvis_tx	pelvis_ty	pelvis_tz	hip_flexion_l	hip_adduction_l	hip_rotation_l	hip_flexion_r	hip_adduction_r	hip_rotation_r	knee_angle_l	knee_angle_r	ankle_angle_l	ankle_angle_r	subtalar_angle_l	subtalar_angle_r	tmt_angle_l	tmt_angle_r	mtp_angle_l	mtp_angle_r	lumbar_extension	lumbar_bending	lumbar_rotation	arm_flex_l	arm_add_l	arm_rot_l	arm_flex_r	arm_add_r	arm_rot_r	elbow_flex_l	elbow_flex_r	pro_sup_l	pro_sup_r	glut_med1_l/activation	glut_med2_l/activation	glut_med3_l/activation	glut_min1_l/activation	glut_min2_l/activation	glut_min3_l/activation	semimem_l/activation	semiten_l/activation	bifemlh_l/activation	bifemsh_l/activation	sar_l/activation	add_long_l/activation	add_brev_l/activation	add_mag1_l/activation	add_mag2_l/activation	add_mag3_l/activation	tfl_l/activation	pect_l/activation	grac_l/activation	glut_max1_l/activation	glut_max2_l/activation	glut_max3_l/activation	iliacus_l/activation	psoas_l/activation	quad_fem_l/activation	gem_l/activation	peri_l/activation	rect_fem_l/activation	vas_med_l/activation	vas_int_l/activation	vas_lat_l/activation	med_gas_l/activation	lat_gas_l/activation	soleus_l/activation	tib_post_l/activation	flex_dig_l/activation	flex_hal_l/activation	tib_ant_l/activation	per_brev_l/activation	per_long_l/activation	per_tert_l/activation	ext_dig_l/activation	ext_hal_l/activation	ercspn_l/activation	intobl_l/activation	extobl_l/activation	glut_med1_r/activation	glut_med2_r/activation	glut_med3_r/activation	glut_min1_r/activation	glut_min2_r/activation	glut_min3_r/activation	semimem_r/activation	semiten_r/activation	bifemlh_r/activation	bifemsh_r/activation	sar_r/activation	add_long_r/activation	add_brev_r/activation	add_mag1_r/activation	add_mag2_r/activation	add_mag3_r/activation	tfl_r/activation	pect_r/activation	grac_r/activation	glut_max1_r/activation	glut_max2_r/activation	glut_max3_r/activation	iliacus_r/activation	psoas_r/activation	quad_fem_r/activation	gem_r/activation	peri_r/activation	rect_fem_r/activation	vas_med_r/activation	vas_int_r/activation	vas_lat_r/activation	med_gas_r/activation	lat_gas_r/activation	soleus_r/activation	tib_post_r/activation	flex_dig_r/activation	flex_hal_r/activation	tib_ant_r/activation	per_brev_r/activation	per_long_r/activation	per_tert_r/activation	ext_dig_r/activation	ext_hal_r/activation	ercspn_r/activation	intobl_r/activation	extobl_r/activation	
          1.10421733	         -2.89609119	          1.16475290	          5.38837587	          1.38027166	          0.87022876	         -0.00365279	        -17.35867466	          1.57711955	          7.65526726	         26.98092768	         -0.51154195	         -2.08386454	         -8.63042937	         -8.02861359	        -11.30627403	          6.17304693	          9.51417932	          3.40488546	          4.04763694	          0.14712223	         27.38508281	         -0.07461849	          0.34515557	         -2.97698851	         -1.63506029	          3.20701232	        -13.50381647	         12.16538186	        -10.52413907	        -13.46338724	         10.89713337	         31.14668754	         18.35732655	         86.51662706	         86.51662706	          0.26493493	          0.08300073	          0.05000026	          0.22639092	          0.15220797	          0.08299984	          0.05000120	          0.05000017	          0.05000014	          0.05000024	          0.07010373	          0.14876842	          0.05000288	          0.05000135	          0.05000186	          0.05000042	          0.22208032	          0.11150073	          0.05000163	          0.05000105	          0.05000062	          0.05000058	          0.29657375	          0.55675005	          0.05000015	          0.05000036	          0.05000014	          0.21824946	          0.12584768	          0.13776900	          0.09698060	          0.16151493	          0.23899039	          0.19325263	          0.18411157	          0.19939890	          0.23828255	          0.05000001	          0.10920197	          0.14433785	          0.05000019	          0.05000005	          0.05000012	          0.05000006	          0.05000004	          0.05424475	          0.07524559	          0.05010106	          0.10279506	          0.05000117	          0.05000165	          0.05005121	          0.06119793	          0.05920236	          0.09567800	          0.05920171	          0.05000292	          0.05674830	          0.08511456	          0.12514810	          0.18024311	          0.15188097	          0.05000067	          0.05000893	          0.06410018	          0.07009812	          0.14382444	          0.15832235	          0.05000030	          0.05000022	          0.09797886	          0.05000216	          0.05001025	          0.05000011	          0.05000427	          0.08738159	          0.05000166	          0.05920180	          0.05920180	          0.05920180	          0.05920159	          0.05920200	          0.05920193	          0.48405222	          0.31226648	          0.19181050	          0.22128094	          0.49794212	          0.24938757	          0.05000007	          0.11705434	          0.11112946	
          1.11525951	         -2.86758705	          1.17676977	          5.50554653	          1.39804705	          0.86889623	         -0.00347389	        -16.96780555	          1.43033722	          7.39395165	         26.45721819	         -0.25442834	         -1.87187687	        -11.13986724	         -8.31693265	        -11.96379631	          5.36677296	         10.77390551	          2.94058623	          3.48538448	          0.12908260	         27.96507502	         -0.06149395	          0.60019143	         -2.73831616	         -1.69365727	          2.86132433	        -13.54913099	         12.48861871	        -11.78654622	        -13.46594517	         10.65518707	         32.06349785	         18.38991061	         86.51662706	         86.51662706	          0.22375580	          0.07009985	          0.05001230	          0.19120276	          0.12855015	          0.07009913	          0.05000130	          0.05000009	          0.05000014	          0.05000006	          0.05920752	          0.20346121	          0.28955190	          0.22458650	          0.05475129	          0.12973773	          0.18756216	          0.09417074	          0.05000031	          0.05001486	          0.05002765	          0.07008252	          0.25047694	          0.47021381	          0.07009596	          0.05921956	          0.05920181	          0.18432668	          0.11635708	          0.11635740	          0.10571610	          0.13641047	          0.20184384	          0.16321514	          0.15549492	          0.16840624	          0.20124608	          0.05000009	          0.09222863	          0.12190327	          0.05000009	          0.14227537	          0.05000049	          0.05876387	          0.08299755	          0.07457419	          0.06355019	          0.05000040	          0.08681803	          0.05000044	          0.05000036	          0.05000027	          0.05168587	          0.05000051	          0.08080667	          0.05000007	          0.05000024	          0.08299791	          0.12600119	          0.26436421	          0.25168381	          0.15700830	          0.05000063	          0.08260491	          0.05413741	          0.05920322	          0.16335945	          0.19248408	          0.05000018	          0.05000033	          0.29605028	          0.07010181	          0.09472652	          0.07624061	          0.31559065	          0.33651134	          0.25858069	          0.05000000	          0.05000001	          0.05000000	          0.05000002	          0.05000033	          0.05000021	          0.63235006	          0.29730910	          0.16297592	          0.55091387	          0.58954759	          0.34382155	          0.05000001	          0.09886044	          0.09385647	
          1.12630168	         -2.83295701	          1.16415251	          5.59735929	          1.41595512	          0.86726995	         -0.00331032	        -16.47306708	          1.28104234	          7.11648407	         25.80023673	         -0.04115963	         -1.60413363	        -13.84357139	         -9.03303618	        -12.41386668	          4.60589167	         11.96123102	          2.45618113	          2.76147193	         -0.07575586	         27.86981002	         -0.12990038	          0.85998434	         -2.46442537	         -1.74040838	          2.46970829	        -13.60052374	         12.76285309	        -13.01766903	        -13.48722536	         10.52877760	         32.98014549	         18.36950523	         86.51662706	         86.51662706	          0.18897858	          0.05920417	          0.05000013	          0.16148397	          0.10856950	          0.05920360	          0.05000779	          0.05918954	          0.05920193	          0.05000009	          0.05000496	          0.17842283	          0.42274030	          0.18967921	          0.05921796	          0.10957282	          0.15840923	          0.08301712	          0.05920485	          0.05000554	          0.05002420	          0.05920181	          0.21154503	          0.41451469	          0.05920177	          0.05001542	          0.05000020	          0.15567656	          0.09827158	          0.09827184	          0.08928453	          0.11520803	          0.17047102	          0.13784641	          0.13132618	          0.14223078	          0.16996623	          0.07942575	          0.08230695	          0.12521559	          0.11477096	          0.20947816	          0.11443650	          0.06766711	          0.07009715	          0.06298306	          0.27962433	          0.25097894	          0.27203652	          0.05000164	          0.05000154	          0.17391852	          0.08150037	          0.05000045	          0.09391823	          0.05000010	          0.05000122	          0.07009752	          0.10641674	          0.22327385	          0.21256466	          0.16990268	          0.05000037	          0.06978718	          0.05000042	          0.05000154	          0.18222955	          0.16621689	          0.05000038	          0.05000027	          0.25003486	          0.05920597	          0.09942347	          0.06439044	          0.26653804	          0.28420700	          0.21838921	          0.05920182	          0.05920184	          0.05920180	          0.05093065	          0.05920191	          0.05920186	          0.53406314	          0.34679634	          0.17672973	          0.46528471	          0.60250942	          0.29038104	          0.05000001	          0.08349445	          0.07926825	
          1.13734385	         -2.79560366	          1.13773778	          5.66388830	          1.43376679	          0.86539495	         -0.00314240	        -15.87321727	          1.13587622	          6.83191027	         25.00275609	          0.15353815	         -1.30503042	        -16.69851042	         -9.72194304	        -12.59243829	          4.01983014	         13.04180118	          1.92986752	          1.93498341	         -0.02830807	         26.80227523	         -0.19435074	          1.10442658	         -2.17204985	         -1.77728424	          2.07500885	        -13.66067012	         13.01205295	        -14.16960154	        -13.52174107	         10.52966185	         33.86930028	         18.26978958	         86.51662706	         86.51662706	          0.15960559	          0.05000206	          0.05000006	          0.21464931	          0.09169455	          0.05000170	          0.05121747	          0.05000022	          0.05000032	          0.05000169	          0.05924626	          0.15069089	          0.35703331	          0.16019724	          0.05001389	          0.09254189	          0.13378763	          0.07011394	          0.05000300	          0.05000082	          0.05000039	          0.05000037	          0.17866437	          0.36843876	          0.05000009	          0.05000030	          0.05000018	          0.13147957	          0.08299712	          0.08299735	          0.07540695	          0.09730111	          0.14397452	          0.11642077	          0.11091402	          0.12012380	          0.14354823	          0.10605070	          0.08732885	          0.10575322	          0.16630873	          0.29168576	          0.21893707	          0.10157064	          0.05920186	          0.05319354	          0.34599945	          0.40704916	          0.48927271	          0.22315207	          0.21966822	          0.40347874	          0.06883271	          0.08617298	          0.07932046	          0.07354224	          0.05000208	          0.05920224	          0.08987630	          0.18857022	          0.17952589	          0.17612049	          0.05000029	          0.05914358	          0.07944914	          0.24930067	          0.23046642	          0.19032860	          0.05000032	          0.05000020	          0.21117169	          0.05000402	          0.29136963	          0.05438217	          0.22510976	          0.24003242	          0.18444474	          0.05000002	          0.05000006	          0.05000000	          0.05000000	          0.05000015	          0.05000010	          0.70145402	          0.29289347	          0.14926046	          0.69200984	          0.65519676	          0.45791091	          0.06637707	          0.07051682	          0.06694750	
